<svg xmlns="http://www.w3.org/2000/svg" version="1.0" viewBox="0 0 107.056460 145.956198" preserveAspectRatio="xMidYMid meet">
<g transform="translate(-5.943540,151.940907) scale(0.100000,-0.100000)" fill="#172c4d" stroke="none">
<path d="M425 1451 c-88 -37 -206 -85 -263 -107 l-103 -39 3 -355 3 -355 18 -50 c43 -115 153 -254 265 -334 l32 -22 0 228 0 228 49 28 c27 15 52 27 55 27 3 0 6 -130 6 -289 l0 -288 38 -25 c20 -13 45 -27 56 -31 l18 -7 77 47 c289 180 414 323 441 508 5 39 10 208 10 378 l0 307 -42 20 c-64 29 -488 200 -496 199 -4 0 -79 -31 -167 -68z m227 -7 c17 -9 54 -24 82 -34 28 -10 116 -45 196 -78 l145 -60 3 -61 c2 -35 -1 -61 -7 -61 -5 0 -31 10 -58 21 -26 12 -131 55 -232 96 l-185 74 -53 -22 -53 -21 0 -169 0 -169 -41 -25 c-22 -15 -47 -29 -55 -32 l-14 -5 0 240 0 240 93 40 c103 45 134 49 179 26z m-322 -337 l0 -243 -67 -38 c-38 -21 -87 -50 -111 -63 l-42 -25 2 267 3 268 35 12 c19 7 55 21 80 32 57 26 72 31 88 32 l12 1 0 -243z m470 98 c91 -37 190 -77 220 -89 l55 -22 3 -205 c2 -118 -2 -231 -8 -268 -22 -127 -90 -231 -216 -331 -75 -60 -200 -144 -241 -163 l-22 -10 -26 17 -25 16 0 294 0 293 68 40 c37 22 127 75 200 118 73 42 132 81 130 86 -2 5 -54 31 -116 58 l-112 49 -73 -44 c-39 -24 -78 -44 -84 -44 l-13 0 0 133 0 133 28 10 c31 12 17 16 232 -71z m-16 -204 l59 -27 -159 -94 c-87 -52 -170 -100 -184 -107 -14 -7 -56 -32 -95 -56 l-70 -42 -3 -188 c-1 -103 -6 -187 -11 -187 -19 0 -121 125 -154 188 -38 74 -66 177 -51 192 5 5 104 64 219 131 116 67 246 144 290 170 44 26 85 47 90 47 6 0 37 -12 69 -27z" />
</g>
</svg>